<svg width="307" height="220" viewBox="0 0 307 220" fill="none" xmlns="http://www.w3.org/2000/svg">
<g clip-path="url(#clip0_8099_8841)">
<path d="M250.786 0H62.4884C53.8222 0 46.7969 7.02532 46.7969 15.6915V203.989C46.7969 212.656 53.8222 219.681 62.4884 219.681H250.786C259.452 219.681 266.478 212.656 266.478 203.989V15.6915C266.478 7.02532 259.452 0 250.786 0Z" fill="#FFFAEB"/>
<g filter="url(#filter0_d_8099_8841)">
<path d="M81.3223 84.7334H293.157C295.238 84.7334 297.234 85.56 298.705 87.0314C300.177 88.5027 301.003 90.4983 301.003 92.5791V131.808C301.003 133.889 300.177 135.884 298.705 137.356C297.234 138.827 295.238 139.654 293.157 139.654H81.3223C79.2415 139.654 77.2459 138.827 75.7745 137.356C74.3032 135.884 73.4766 133.889 73.4766 131.808V92.5791C73.4766 90.4983 74.3032 88.5027 75.7745 87.0314C77.2459 85.56 79.2415 84.7334 81.3223 84.7334Z" fill="white"/>
</g>
<path d="M197.439 97.2871H156.641C154.041 97.2871 151.934 99.3947 151.934 101.995C151.934 104.594 154.041 106.702 156.641 106.702H197.439C200.039 106.702 202.146 104.594 202.146 101.995C202.146 99.3947 200.039 97.2871 197.439 97.2871Z" fill="#FFE9AD"/>
<path d="M225.684 117.687H156.641C154.041 117.687 151.934 119.794 151.934 122.394C151.934 124.994 154.041 127.101 156.641 127.101H225.684C228.283 127.101 230.391 124.994 230.391 122.394C230.391 119.794 228.283 117.687 225.684 117.687Z" fill="#FFFAEB"/>
<path d="M121.333 127.101C129.566 127.101 136.24 120.427 136.24 112.194C136.24 103.961 129.566 97.2871 121.333 97.2871C113.1 97.2871 106.426 103.961 106.426 112.194C106.426 120.427 113.1 127.101 121.333 127.101Z" fill="#FFC830"/>
<path d="M117.975 113.271H118.759L116.939 108.448H116.134L114.314 113.271H115.105L115.567 112.067H117.513L117.975 113.271ZM116.54 109.379L117.261 111.402H115.819L116.54 109.379ZM121.36 109.134C121.885 109.134 122.102 109.575 122.102 109.981C122.102 110.394 121.864 110.821 121.332 110.821H120.184V109.134H121.36ZM119.435 113.271H120.184V111.5H121.374C122.41 111.5 122.844 110.744 122.844 109.981C122.844 109.218 122.41 108.448 121.374 108.448H119.435V113.271Z" fill="white"/>
<g filter="url(#filter1_d_8099_8841)">
<path d="M13.8457 152.208H225.681C227.762 152.208 229.757 153.035 231.229 154.506C232.7 155.977 233.527 157.973 233.527 160.054V199.282C233.527 201.363 232.7 203.359 231.229 204.83C229.757 206.302 227.762 207.128 225.681 207.128H13.8457C11.7649 207.128 9.76933 206.302 8.29797 204.83C6.8266 203.359 6 201.363 6 199.282V160.054C6 157.973 6.8266 155.977 8.29797 154.506C9.76933 153.035 11.7649 152.208 13.8457 152.208Z" fill="white"/>
</g>
<path d="M129.962 164.761H89.1645C86.5646 164.761 84.457 166.868 84.457 169.468C84.457 172.068 86.5646 174.176 89.1645 174.176H129.962C132.562 174.176 134.67 172.068 134.67 169.468C134.67 166.868 132.562 164.761 129.962 164.761Z" fill="#FFE9AD"/>
<path d="M158.207 185.16H89.1645C86.5646 185.16 84.457 187.268 84.457 189.868C84.457 192.467 86.5646 194.575 89.1645 194.575H158.207C160.807 194.575 162.914 192.467 162.914 189.868C162.914 187.268 160.807 185.16 158.207 185.16Z" fill="#FFFAEB"/>
<path d="M33.4538 194.575C41.6867 194.575 48.3607 187.901 48.3607 179.668C48.3607 171.435 41.6867 164.761 33.4538 164.761C25.2209 164.761 18.5469 171.435 18.5469 179.668C18.5469 187.901 25.2209 194.575 33.4538 194.575Z" fill="#FFC830"/>
<path d="M27.8881 180.807C28.9801 180.807 29.3931 180.086 29.3931 179.232V174.353H28.6721V179.232C28.6721 179.708 28.4551 180.114 27.8881 180.114C27.8321 180.114 27.5171 180.1 27.3981 180.058L27.3281 180.73C27.5101 180.772 27.7551 180.807 27.8881 180.807ZM32.1083 179.246C33.0813 179.246 33.7393 178.609 33.7393 177.804C33.7393 177.097 33.2283 176.656 32.4163 176.453L31.8073 176.299C31.1983 176.145 31.1493 175.823 31.1493 175.669C31.1493 175.228 31.5553 174.955 32.0103 174.955C32.5073 174.955 32.8643 175.263 32.8643 175.718H33.5783C33.5783 174.843 32.8993 174.297 32.0313 174.297C31.1773 174.297 30.4283 174.836 30.4283 175.683C30.4283 176.082 30.5963 176.691 31.6253 176.95L32.2413 177.104C32.6333 177.209 33.0183 177.412 33.0183 177.839C33.0183 178.238 32.6823 178.588 32.1083 178.588C31.5063 178.588 31.1213 178.189 31.1073 177.776H30.3933C30.3933 178.553 31.0793 179.246 32.1083 179.246Z" fill="white"/>
<g filter="url(#filter2_d_8099_8841)">
<path d="M225.681 17.2607H13.8457C9.51266 17.2607 6 20.7734 6 25.1065V64.3352C6 68.6683 9.51266 72.181 13.8457 72.181H225.681C230.014 72.181 233.527 68.6683 233.527 64.3352V25.1065C233.527 20.7734 230.014 17.2607 225.681 17.2607Z" fill="white"/>
</g>
<path d="M126.822 29.8145H86.0239C83.424 29.8145 81.3164 31.922 81.3164 34.5219C81.3164 37.1218 83.424 39.2293 86.0239 39.2293H126.822C129.422 39.2293 131.529 37.1218 131.529 34.5219C131.529 31.922 129.422 29.8145 126.822 29.8145Z" fill="#FFE9AD"/>
<path d="M155.066 50.2139H86.0239C83.424 50.2139 81.3164 52.3215 81.3164 54.9213C81.3164 57.5212 83.424 59.6288 86.0239 59.6288H155.066C157.666 59.6288 159.774 57.5212 159.774 54.9213C159.774 52.3215 157.666 50.2139 155.066 50.2139Z" fill="#FFFAEB"/>
<path d="M53.8561 59.6283C62.089 59.6283 68.763 52.9542 68.763 44.7214C68.763 36.4885 62.089 29.8145 53.8561 29.8145C45.6233 29.8145 38.9492 36.4885 38.9492 44.7214C38.9492 52.9542 45.6233 59.6283 53.8561 59.6283Z" fill="#FFC830"/>
<path d="M48.8965 44.8295C48.8965 45.6135 49.5965 46.2995 50.5975 46.2995C51.5145 46.2995 52.1655 45.7605 52.2425 45.0045C52.3195 44.3045 51.9205 43.7655 50.9405 43.5065L50.3245 43.3455C49.7505 43.1985 49.6805 42.9045 49.6805 42.7155C49.6805 42.3235 50.0655 42.0505 50.5135 42.0505C51.0175 42.0505 51.3535 42.3305 51.3535 42.7785H52.0955C52.0955 41.8965 51.4235 41.3505 50.5275 41.3505C49.6805 41.3505 48.9385 41.9035 48.9385 42.7295C48.9385 43.1565 49.0995 43.7445 50.1355 44.0245L50.7445 44.1785C51.1925 44.2835 51.5355 44.5145 51.5075 44.9625C51.4585 45.3195 51.1645 45.6205 50.5975 45.6205C50.0165 45.6205 49.6595 45.2215 49.6385 44.8295H48.8965ZM53.938 42.0995H55.072C56.017 42.0995 56.5 42.8765 56.5 43.8285C56.5 44.7875 56.017 45.5435 55.072 45.5435H53.938V42.0995ZM55.072 46.2295C56.444 46.2295 57.242 45.2005 57.242 43.8285C57.242 42.4565 56.444 41.4065 55.072 41.4065H53.196V46.2295H55.072Z" fill="white"/>
</g>
<defs>
<filter id="filter0_d_8099_8841" x="67.4766" y="81.7334" width="239.527" height="66.9207" filterUnits="userSpaceOnUse" color-interpolation-filters="sRGB">
<feFlood flood-opacity="0" result="BackgroundImageFix"/>
<feColorMatrix in="SourceAlpha" type="matrix" values="0 0 0 0 0 0 0 0 0 0 0 0 0 0 0 0 0 0 127 0" result="hardAlpha"/>
<feOffset dy="3"/>
<feGaussianBlur stdDeviation="3"/>
<feColorMatrix type="matrix" values="0 0 0 0 0 0 0 0 0 0 0 0 0 0 0 0 0 0 0.161 0"/>
<feBlend mode="normal" in2="BackgroundImageFix" result="effect1_dropShadow_8099_8841"/>
<feBlend mode="normal" in="SourceGraphic" in2="effect1_dropShadow_8099_8841" result="shape"/>
</filter>
<filter id="filter1_d_8099_8841" x="0" y="149.208" width="239.527" height="66.92" filterUnits="userSpaceOnUse" color-interpolation-filters="sRGB">
<feFlood flood-opacity="0" result="BackgroundImageFix"/>
<feColorMatrix in="SourceAlpha" type="matrix" values="0 0 0 0 0 0 0 0 0 0 0 0 0 0 0 0 0 0 127 0" result="hardAlpha"/>
<feOffset dy="3"/>
<feGaussianBlur stdDeviation="3"/>
<feColorMatrix type="matrix" values="0 0 0 0 0 0 0 0 0 0 0 0 0 0 0 0 0 0 0.161 0"/>
<feBlend mode="normal" in2="BackgroundImageFix" result="effect1_dropShadow_8099_8841"/>
<feBlend mode="normal" in="SourceGraphic" in2="effect1_dropShadow_8099_8841" result="shape"/>
</filter>
<filter id="filter2_d_8099_8841" x="0" y="14.2607" width="239.527" height="66.9203" filterUnits="userSpaceOnUse" color-interpolation-filters="sRGB">
<feFlood flood-opacity="0" result="BackgroundImageFix"/>
<feColorMatrix in="SourceAlpha" type="matrix" values="0 0 0 0 0 0 0 0 0 0 0 0 0 0 0 0 0 0 127 0" result="hardAlpha"/>
<feOffset dy="3"/>
<feGaussianBlur stdDeviation="3"/>
<feColorMatrix type="matrix" values="0 0 0 0 0 0 0 0 0 0 0 0 0 0 0 0 0 0 0.161 0"/>
<feBlend mode="normal" in2="BackgroundImageFix" result="effect1_dropShadow_8099_8841"/>
<feBlend mode="normal" in="SourceGraphic" in2="effect1_dropShadow_8099_8841" result="shape"/>
</filter>
<clipPath id="clip0_8099_8841">
<rect width="307" height="220" fill="white"/>
</clipPath>
</defs>
</svg>
